<svg xmlns="http://www.w3.org/2000/svg" viewBox="0 0 162.31 158.72"><g id="Layer_2" data-name="Layer 2"><g id="Layer_1-2" data-name="Layer 1"><path d="M79.74,0H84c3.8.87,7.75,1.34,11.37,2.7,4.82,1.82,10.15,2,14.64,4.92,2.14,1.39,4.94,1.76,7.06,3.17A106.85,106.85,0,0,1,129.34,20c4,3.61,7.47,7.8,11.18,11.73,1.92,2,4.22,3.82,5.72,6.13,4.24,6.53,8.34,13.18,12.08,20,1.25,2.28,1.19,5.27,1.83,7.9s1.44,5.23,2.16,7.85v1.28a7.14,7.14,0,0,0-.85,2.15c-.08,3.62.07,7.25-.06,10.87-.1,2.67-.85,5.34-.7,8,.38,6.55-.55,13-3.51,18.66-2.23,4.28-5.91,7.92-9.41,11.38-3.07,3-6.76,5.46-10.22,8.09-5,3.82-10.1,7.57-15.12,11.39-.93.71-1.57,2-2.58,2.36-3.16,1.11-6.39,2.39-9.67,2.7-6.17.6-12,2.57-17.92,4-2.87.66-5.85.93-8.63,1.84-1.37.44-3.87-.28-3.9,2.47h-.43c-.56-.45-1.12-1.29-1.7-1.3-5.29-.09-10.63.37-15.86-.18-3-.33-5.86-2.37-8.87-3.38a60.11,60.11,0,0,0-6.32-1.48c-.08-.66,0-1.43-.22-1.58-2.68-1.55-5.41-3-8.15-4.49-3.3-1.74-7-2.95-9.85-5.22a127.06,127.06,0,0,1-14.67-13.43c-3-3.21-5-7.3-7.11-11.22a40.27,40.27,0,0,1-3-8.43C2.19,103,.25,97.94,0,92.84c-.27-6.62.84-13.31,1.5-20C2,68.6,2.65,64.33,3.23,60.06c0-.23.24-.44.5-.91l.52,2.21c.33-.58.52-.87.65-1.17,2.43-5.65,4.74-11.34,7.33-16.91.92-2,2.91-3.43,3.71-5.41,3.36-8.3,9.66-14.25,15.9-20.18,2.33-2.22,5.85-3.15,8.53-5.09,2.45-1.78,4.62-3.87,7.88-4,.11,0,.2-.19.33-.25,3-1.43,5.93-3.57,9.1-4.11,5.28-.9,10.7-.76,15.8-2.9C75.42.55,77.65.43,79.74,0ZM72.19,20.3c-1.8,0-3.29-.39-4.43.07-4.24,1.7-8.24,4.09-12.57,5.45-4.6,1.44-8,4.13-11.25,7.5-2,2.13-5.09,3.45-6.73,5.8C33.91,43.85,31.26,49,28.33,54a18.25,18.25,0,0,0-1.63,2.64Q24.75,62.1,23,67.6a82.47,82.47,0,0,0-2.69,9.28,73.31,73.31,0,0,0-1.28,11c-.13,3.52-.36,7.23.53,10.57,1.68,6.33,3.08,12.93,7.26,18.25a50.17,50.17,0,0,0,8.51,9A106.41,106.41,0,0,0,50.1,135a62.3,62.3,0,0,0,12.51,4.8c3,.84,6.3.54,9.42,1,2.89.44,5.42-1,8.16-1.35,6.22-.78,12.31-2.7,18.42-4.27,5.4-1.39,10.84-2.7,15.34-6.36a77.37,77.37,0,0,1,9-6.55c3.12-1.84,4.74-5.49,8.84-6.33,1.74-.35,2.83-3.32,4.46-4.82,6.26-5.74,4.79-13.92,6.69-21,.75-2.81-.2-6,.26-9,.4-2.64-.66-5-.75-7.51-.13-3.39.75-6.92-1.7-10.41s-3.22-7.9-4.76-11.91c-.12-.31-.46-.53-.69-.8-3.1-3.61-6-7.39-9.34-10.79-4.67-4.78-9-10.43-14.61-13.6-6.72-3.76-14.7-5.27-22.12-7.79-4-1.37-7.23.1-10,2.79-2,1.87-3.51,1.63-5.08-.42a6,6,0,0,0-1.56-1C72.26,20.19,72,20.68,72.19,20.3Z"/><path d="M77.9,57.59c-.79-2.33-1.66-.87-3-.12s-3,.42-4.47.7-2.6.35-3.65-1.63c-1.31-2.5-4.73-4.14-5.42-6.65s.61-5.81,1.41-8.65c.19-.69,1.9-1.42,2.83-1.34,4.65.43,9.41.62,13.38,3.64,1.68,1.28,3.8,2.18,2.53,5.11a5.91,5.91,0,0,0,0,4c.94,2.6-1,2-2.23,2.6C78.61,55.58,78.36,56.74,77.9,57.59Z"/><path d="M109.3,79c-.08-.09-.5-1-1-1.08-1.86-.18-2.52-1.29-2.67-2.86-.16-1.79,0-3.63-.29-5.39-.85-4.77,2.51-5.42,5.8-6.14a31.94,31.94,0,0,1,5.39-.83c.41,0,.75,1.32,1.34,1.71,2,1.31,4.51,2.1,6,3.8,1.22,1.36,1.34,3.73,1.85,5.68a15,15,0,0,1,.22,2.48,19.8,19.8,0,0,1-3.48,2.27,58.23,58.23,0,0,1-8.32,2.83c-.61.15-1.52-1.19-2.39-1.69A13.61,13.61,0,0,0,109.3,79Z"/><path d="M67.86,117.14c.78-5.16,2.25-7,6.83-8,4.26-1,10.73,1.49,13.22,5,1.26,1.8.61,6.1-.37,8-1.53,3-4.51,3.56-7,4.35-1.86.6-5.09,1.46-6.48-2-.37-.93-2-1.25-2.76-2.14C70,120.71,69,118.88,67.86,117.14Z"/></g></g></svg>