<svg xmlns="http://www.w3.org/2000/svg" viewBox="0 0 158.88 150.76"><g id="Layer_2" data-name="Layer 2"><g id="Layer_1-2" data-name="Layer 1"><path d="M24.86,137.25a3.14,3.14,0,0,0,1-.11c.28-.12.63-.39.68-.64a.91.91,0,0,0-.52-.71c-3.27-1.06-5.25-3.76-7.65-5.91s-4.92-4.59-7.33-6.95a2.86,2.86,0,0,1-.95-1.67,3.41,3.41,0,0,0-1.82-3c-.62-.4-1.06-.73-1.13-1.52a2.14,2.14,0,0,0-.6-1c-2.1-2.48-2.81-5.58-4-8.5-.76-1.94-1.86-3.74-2-5.9C.41,97.68,0,94.05,0,90.42A106.81,106.81,0,0,1,.57,79.69,33,33,0,0,1,1.86,74.8a30,30,0,0,0,.6-3c.19-1.18.18-2.4.47-3.55.23-.92-.07-1.4-1-1.92,2.42-.67,1.79-2.87,2.43-4.42.56-1.37.84-2.85,1.35-4.25.76-2.09,1.58-4.17,2.44-6.22A13.92,13.92,0,0,1,9.46,49.4c.9-1.36,1.83-2.7,1.84-4.43,0-.39.13-1,.34-1.11,2.37-.65,2.64-3.08,3.89-4.64,3.57-4.48,6.67-9.34,10.87-13.33,2.74-2.6,5.2-5.49,7.8-8.24a7.14,7.14,0,0,1,.92-.8c2.43-1.81,4.83-3.66,7.3-5.43s5-3.48,7.51-5.14a11.35,11.35,0,0,1,2.6-1.12c2.8-.94,5.62-1.84,8.43-2.74a10.84,10.84,0,0,1,1.39-.34l5.13-.94c.9-.16,2,.42,2.6-.89C70.16.07,70.69,0,71,0c1.89.05,3.79.09,5.67.21C80.4.45,84.12.75,87.89,1c-.08,1.34.6,1.77,1.8,1.92,2.47.32,4.94.74,7.38,1.24a19.82,19.82,0,0,1,3.2,1.17c3.06,1.22,6.29,2.1,8.85,4.35a5.08,5.08,0,0,0,1.63.81,22.09,22.09,0,0,1,6.52,4c1.68,1.36,3.49,2.55,5.22,3.86,2.8,2.12,5.7,4.13,8.34,6.44A95.1,95.1,0,0,1,138,32c2.75,3,5.39,6.05,8,9.15a10.86,10.86,0,0,1,1.43,2.67c1.09,2.47,2.12,5,3.17,7.47.16.37.19.9.47,1.1,1.52,1.08,1.22,2.72,1.42,4.22a13.36,13.36,0,0,0,.4,2c.79,2.62,1.69,5.22,2.4,7.87.51,1.94.74,4,1.2,5.91a11.06,11.06,0,0,0,1,2.17c.06.12.26.25.24.32-1,2.33,0,4.61.2,6.9.22,2.81.63,5.61,1,8.42a1.33,1.33,0,0,1,0,.6c-.94,2.13-.53,4.39-.74,6.59a33.73,33.73,0,0,1-3.5,12c-.88,1.77-1.47,3.68-2.26,5.5-.46,1-1.05,2-1.56,3-.86,1.68-1.63,3.42-2.6,5-.45.76-1.34,1.25-1.92,2-1.28,1.57-2.41,3.26-3.74,4.78-1.16,1.32-1.89,3.17-4,3.52-.24,0-.39.5-.61.74-.36.39-.69,1-1.11,1.09a8.75,8.75,0,0,0-3.71,2,5.7,5.7,0,0,1-1.63.78c-1.25.4-2.86.36-3.69,1.15-1,1-2.61,1.23-3.23,2.19-.88,1.36-1.89.9-3,1.13-1.68.36-3.28,1.09-4.94,1.6s-3.61,1-5.44,1.5c-3.72.94-7.43,1.95-11.2,2.69-2.68.52-5.43.65-8.15.93-4.1.42-8.2.81-12.29,1.24-1,.11-2.08.35-3.12.52-.19,0-.5.08-.56,0-.89-1.38-2.06-.43-3.13-.43-2.09,0-4.18-.06-6.28-.12-1.74-.06-3.48-.11-5.21-.27a20.18,20.18,0,0,1-2.72-.63c-3.17-.76-6.37-1.44-9.51-2.32-2.72-.76-5.41-1.66-8.06-2.65-1.82-.69-3.55-1.64-5.33-2.47-2.44-1.14-4.86-2.32-7.34-3.38a26.73,26.73,0,0,0-3.48-1ZM38.44,40.56l.11.07a19.77,19.77,0,0,1-2.13,3.15c-1.67,1.71-3.79,3-4.23,5.65a.39.39,0,0,1-.11.17C29.77,52.86,27.51,56.14,26.2,60a12.52,12.52,0,0,1-.7,1.23,29.12,29.12,0,0,1-1.65,3.42c-.64,1-.38,2-.6,3-.27,1.24-.63,2.46-.91,3.7-.15.66,0,1.48-.36,2-1.41,2-1.31,4.44-1.69,6.64-.75,4.24-.73,8.61-1.24,12.89s1.4,8.17,2,12.27a1,1,0,0,0,.15.37c2.23,3.72,4,7.65,7.36,10.72,2,1.78,3.68,3.91,5.63,5.78,2.71,2.59,6.24,3.73,9.29,5.71.26.17.66.12,1,.22,1.36.4,2.72.79,4.06,1.23,2.56.83,5.1,1.73,7.67,2.53a22.42,22.42,0,0,0,4.68,1.22c4.78.4,9.58.55,14.36.92,1.11.08,1.85,0,2-1a4.74,4.74,0,0,0,1.47.6c1.55,0,3.15-.48,4.64-.22,3.52.62,6.71-1.12,10.18-1.11,2.74,0,5.46-1.28,8.23-1.72,6.27-1,11.9-3.83,17.66-6.17a17.76,17.76,0,0,0,7.68-5.76c1.1-1.51,2.37-2.9,3.47-4.4.79-1.08,1.43-2.28,2.15-3.41,1.43-2.25,2.88-4.49,4.29-6.74a3.27,3.27,0,0,0,.2-.79c.51-1.68,1-3.35,1.55-5a37.86,37.86,0,0,0,1.08-3.88A17.26,17.26,0,0,0,140,91c-.06-3.16-.11-6.32-.29-9.48-.09-1.61-.6-3.2-.66-4.82s-1.84-2.88-.82-4.67c.09-.15-.29-.55-.42-.85a5.63,5.63,0,0,1-.43-1.12c-.32-1.71-.5-3.46-.92-5.14-.83-3.27-1.62-6.56-2.73-9.73a36.46,36.46,0,0,0-3.46-7.53A48.06,48.06,0,0,0,121,37.25c-1.75-1.49-3.34-3.2-5.21-4.51-4.42-3.1-9-6.06-13.48-9A16.14,16.14,0,0,0,96.66,21a11,11,0,0,1-2.32-.73A9.55,9.55,0,0,0,88,19.9a4.11,4.11,0,0,1-2.09,0,93.37,93.37,0,0,0-10.38-2.17c-2.31-.27-4.79-.78-7.1.42-.46.23-1.07.15-1.57.34a26.79,26.79,0,0,0-4.07,1.74c-1.89,1.13-3.65,2.48-5.47,3.73a78.86,78.86,0,0,0-12.57,10.5,18.36,18.36,0,0,1-3,2.74c-1.19.79-2,1.6-1.46,3.25l-1.38-.15-.7,0Z"/><path d="M77.75,124.9c-.31-1.12-1-1.15-2.19-.55-2,1-2.73.75-4.26-.85-1.21-1.27-2.5-2.47-3.69-3.76a6.55,6.55,0,0,1-1.74-5.66c.57-3.35-.29-6.59-.34-9.89,0-1.82,0-3.64,0-5.45,0-3.52.13-7,.21-10.54,0-1.15.11-2.3.12-3.45,0-2.75,0-5.5,0-8.25a38.9,38.9,0,0,1,.24-4c.19-1.58-.1-2.12-1.59-2.51-3-.77-4.28.18-3.68,3.22A31.64,31.64,0,0,1,61.09,81c-.11,2.56,0,5.13-.07,7.7A45.9,45.9,0,0,1,60.48,94a2.44,2.44,0,0,1-1,1.57c-1.68,1-3.46,1.8-5.21,2.68a.64.64,0,0,1-.38.11,3.47,3.47,0,0,0-3.66,1.36c-.58.64-1.32.1-1.2-.61.32-1.86-1.12-2.53-2.17-3.31a7,7,0,0,1-2.91-5.14c-.45-4.49-.76-9-1.11-13.48-.11-1.41,0-2.85-.26-4.24a37.75,37.75,0,0,0-1-3.87c-.1-.36-.37-.83-.24-1.07.83-1.46.43-3,.5-4.55A3.48,3.48,0,0,1,42,62.29a6.22,6.22,0,0,1,4.59-2.72c.67,0,1.35-.09,2,0a10.91,10.91,0,0,1,3,.43,49,49,0,0,1,4.76,2.24A8.88,8.88,0,0,1,61,67.32a3.63,3.63,0,0,0,4.21,2.33,1.11,1.11,0,0,0,.72-.63,12.78,12.78,0,0,0,.67-3.13c0-2.56-.14-5.12-.14-7.67a23.33,23.33,0,0,1,.29-5.62,27.22,27.22,0,0,0,.34-10.82c-.22-1.49.76-2.63,1.18-3.93,1.16-3.55,4-2.7,6.44-3,1.92-.19,3.47.91,5.13,1.63s3.33,1.31,3.75,3.36a.31.31,0,0,0,.12.16c2.94,2.8,2.29,6.12,1.64,9.61A47.45,47.45,0,0,0,85,57.12c0,1.34.14,2.69.08,4s-.36,2.7-.42,4.05c-.1,2.3-.1,4.61-.14,6.92a20.41,20.41,0,0,1-.08,2.21,80.3,80.3,0,0,0-.55,16.4c.06,1,0,2,0,3,0,2.15.06,4.31,0,6.46,0,2-.22,3.91-.2,5.86,0,3.29.14,6.58.34,9.86.19,3-.81,4.81-3.51,6.4A16.26,16.26,0,0,0,77.75,124.9Z"/><path d="M95.65,95.79c-.62-1.11-1.25-2.21-1.84-3.33a3.87,3.87,0,0,1-.67-1.65c.06-3.56.22-7.13.34-10.69.07-2,.2-4.06.21-6.09,0-1.85-.2-2.1-1.8-3.08,2-1.42,1.14-3.64,1.53-5.5A5.42,5.42,0,0,1,98.85,61a7.49,7.49,0,0,0,1.42,0,8.07,8.07,0,0,1,5.46,1.16c1,.64,2.12,1.2,3.14,1.85a3.53,3.53,0,0,1,1,1c.79,1.25,1.47,2.56,2.28,3.79s.59,2.57.47,3.88c-.27,3.23-.79,6.45-.93,9.68-.16,3.52-.29,7-1.59,10.34-1,2.54-3.25,3.9-5.52,5.16,0,0-.14,0-.2,0-2.46,1.51-4.58,1.47-6.43-1.1-.42-.59-1.53-.68-2.32-1Zm12.74-15-.12-.31c-.06,0-.15,0-.15.09a1.16,1.16,0,0,0,0,.32Z"/><path d="M95.64,95.77l-.11,0h.12Z"/></g></g></svg>