<svg xmlns="http://www.w3.org/2000/svg" viewBox="0 0 160.35 152.36"><g id="Layer_2" data-name="Layer 2"><g id="Layer_1-2" data-name="Layer 1"><path d="M159.33,71.32a37.3,37.3,0,0,1-2.07-9.61c-.35-4.85-2-9.1-4.11-13.33a26.37,26.37,0,0,1-2.92-7.76,6.11,6.11,0,0,0-1.31-2.93c-3.32-3.54-4.93-8.44-9-11.31a5.38,5.38,0,0,1-1.71-1.78c-2.43-4.63-6.88-7-11-9.69-1.76-1.14-3-3.23-5-3.61-2.19-.43-3.64-1.7-5.39-2.76s-4.12-1.14-6.09-2.16a15.86,15.86,0,0,0-6.09-2.07c-2.28-.13-4.43-1.12-6.57-1-4.44.2-8.65-1.81-13.09-1.12-.24,0-.54-.28-.78-.41-.06-.58,1.26-.59.35-1.75-3.8,3-8.26,3.67-13.09,3.06-.93-.55-1.31-1.61-1.68-2.88-.61,0-1.25.06-1.89,0-8.22-.8-16.28,1.52-24.65,1-.07,1-.13,1.82-.19,2.78-1.22.52-2.12.25-3.1.81A93.25,93.25,0,0,0,31.62,10c-5,3.6-8.68,8.53-13.27,12.51-2.11,5.14-6.57,8.69-9,13.75C7.14,40.81,4.07,44.85,2.63,50,1.27,54.82,1,59.72.15,64.59c-.7,4.12,1.32,8,.94,12.07S2,84.37,2.31,88.23c.29,3.47,1.94,6.82,2.92,10.25a67.16,67.16,0,0,0,3.95,9.84c2,4.33,4.38,8.52,6.4,12.85a15,15,0,0,0,2.51,3.46c4.27,4.91,10,7.83,15.27,11.47,1,.7,1.65,1.76,3.09,2.17a54.58,54.58,0,0,1,10.68,4.36,32.7,32.7,0,0,0,11,3.76c2.54.35,5.75.36,7.5,2.74,3,.15,5.7-.47,8,1.09l1-1c1.33,1,3.13,1.38,3.87,2.78a10.26,10.26,0,0,1,8.3-.46c2.36.9,4.92,1.12,6.64.4a14.17,14.17,0,0,1,6.17-.7c4.56.07,8.52-2,12.74-3.11,2.39-.63,3.93-3.17,6.64-3.27,3.55-3.72,8.63-5.06,12.59-8.35,7.06-5.87,12.42-11.38,16.43-18.68,1.2-2.16,2.31-4.38,3.58-6.5.25-.4,1.29,0,1.58-.78-.23-3.64,1.84-6.25,4-9.1.09-1.64-.39-3.67,1-5.3,1.05-1.22.9-2.65,1-4.09.29-3.7-.22-7.35.74-11.14A16.77,16.77,0,0,0,159.33,71.32ZM140,83.41a12.25,12.25,0,0,1-1.89,6.65c-1.08,1.53-.64,3.39-1.34,5a50.06,50.06,0,0,1-4.15,8.28c-1.67,2.41-2.76,5.18-4.39,7.68-3.43,5.26-7.94,9.47-12.27,13.88-4.36,1.09-7.34,4.82-11.42,6.17-2.8.92-5.54,1.88-8.82,3.26-.17,0-.53-.6-1.2-1.22-5.52,3-11.2-.26-17,.11l-.62-1.79c-.83-.23-1,1-2,.81-3.13-.63-6.4-.67-9.46-1.35A108.55,108.55,0,0,1,51,126.12,39.22,39.22,0,0,1,38.4,119a35.89,35.89,0,0,1-11.26-18.85,2.64,2.64,0,0,0-.35-.85C24.17,95.57,24.08,91.1,23,86.87c-.68-2.73-.12-5.69-1.09-8-1.11-2.67-.58-5.13-.76-7.67-.19-2.81,0-5.66-.06-8.48a12.48,12.48,0,0,1,1-6.09c2.19-4.43,2.72-9.76,7-12.87a4.39,4.39,0,0,1,.76-2.92c2.55-3.21,4.33-7.25,7.38-9.8,3.69-3.08,6.45-7.37,10.95-9.33,4.27-1.85,8.38-4.77,13.57-3.26.44,1.06,2.41.37,2.64,1.61.67,3.53,5.66,3.21,5.89,7,2.17-1.13,4.11,1.36,6.19-.12,2.79-2.35,6-4.5,9-6.59,3.75-.87,7.1,1.46,10.69.86s6.44,1.56,9.68,1.9c3.53.38,6.26,2.84,10.12,3.36,1.67,1.69,3.6,3.75,5.64,5.71,6.75,6.47,11,14.51,14,23.17,1.45,4.22,2.25,8.72,3.58,13C140.74,73.32,140.13,78.39,140,83.41Z"/></g></g></svg>