<svg xmlns="http://www.w3.org/2000/svg" viewBox="0 0 155.47 156.1"><g id="Layer_2" data-name="Layer 2"><g id="Layer_1-2" data-name="Layer 1"><path d="M0,85.38V85c.53-.39,1.44-.71,1.54-1.19C2.44,79.66,3,75.46,4,71.37A65.29,65.29,0,0,1,7.89,59.08c1.75-3.71,2.13-8,4.85-11.29,1.23-1.49,1.91-3.42,3-5,2.41-3.55,5.23-6.86,7.33-10.59s4.93-6.34,7.63-9.31c2.34-2.56,4.73-5.08,7.08-7.63a6.54,6.54,0,0,0,.67-1.1H36.6a39,39,0,0,0,3.69-1.95c2.7-1.77,5.18-3.92,8-5.43A48.76,48.76,0,0,1,64,1.08c2.91-.44,5.77-1.6,8.72-.82s6-1.31,8.48,1.25a.29.29,0,0,0,.19.07c3.73,0,5.5,2.88,7.44,5.26A5.58,5.58,0,0,0,93.4,9.27a24.89,24.89,0,0,1,5.07,1,16.35,16.35,0,0,1,2.26.94,25,25,0,0,1,4.59,1.93c2.6,1.75,5,3.83,7.48,5.72,1.27.95,2.6,1.84,3.94,2.69,1.18.75,2.5,1.3,3.6,2.15,2.66,2,5.26,4.15,7.83,6.3a45.4,45.4,0,0,1,4.54,4.1c2.41,2.62,4.8,5.28,6.93,8.11,2.83,3.77,5.4,7.72,8.06,11.6a3.47,3.47,0,0,1,.28.93c.39,1.31.43,3.35,1.26,3.76,1.53.74,1.11,1.92,1.54,2.9.62,1.42,1.31,2.81,2,4.22a9.94,9.94,0,0,1,1.1,2.63c.28,2.29,1.08,4.47,1.14,6.8.13,4.68.45,9.36.49,14a44.93,44.93,0,0,1-.61,7.12c-.47,3.22-1.08,6.43-1.77,9.61-.14.65-.89,1.16-1.36,1.74-.7,1.07-.86,2.54-1.47,3.8a72.2,72.2,0,0,1-3.73,6.72c-.81,1.3-1.93,2.41-2.8,3.68-1.53,2.25-2.89,4.63-4.48,6.84-3.71,5.15-9,8.45-14.21,11.81-2.12,1.37-4.3,2.67-6.5,4l.59.45c-10.58,3.86-21.27,7.72-32.46,9.46l-.26,1.74-.82-1.49c-2.9.22-5.64.56-8.38.62-4.41.1-8.83.14-13.23-.06-2.26-.1-4.48-.85-6.73-1.17-5.71-.82-11.43-1.56-17.28-2.36l.48-.68c-2.7-1.39-5.31-2.69-7.87-4.07-2.94-1.58-6.15-2.87-8.68-5-3.2-2.64-6.73-5-9.19-8.51-2-2.93-4.3-5.7-6.31-8.65a30.15,30.15,0,0,1-3-5.53c-1.13-2.83-2-5.75-2.92-8.65a31,31,0,0,1-1.58-6.18c-.21-2.32.47-4.73.2-7a33.63,33.63,0,0,1-.05-10.69C1.13,86.33.37,85.82,0,85.38Zm76.15,53.67a13.28,13.28,0,0,0,0-1.85,164.11,164.11,0,0,1-2.78-18.31c-.17-2.46-.7-4.89-1-7.34-.46-3.27-1-6.54-1.29-9.82-.27-2.75-.23-5.53-.46-8.29-.12-1.34-.57-2.29-2.45-2.14-7.17.54-14.35.85-21.53,1.26a60.53,60.53,0,0,0-7.27.52c-5.75,1-11.47,2.25-17.16,3.54a3.11,3.11,0,0,0-1.72,1.9,6.56,6.56,0,0,0,0,3c.44,2.54,1.13,5,1.48,7.58.69,5,3.46,9.12,6.36,12.81a32.82,32.82,0,0,0,10,8.83,88.06,88.06,0,0,0,12,5.21c2.92,1.05,6.11,1.3,9.11,2.16s6,0,9.1.85C70.76,139.59,73.44,139.05,76.15,139.05Zm-7.34-65c-.21-2.09-.54-4-.57-6-.07-6.64,0-13.29,0-19.94,0-.8,0-1.59,0-2.39-.24-5.46-.59-10.92-.7-16.38,0-1.75-.09-3.08-1.81-4.12a7.09,7.09,0,0,1-2.41-3c-1.16-2.38-1.66-2.75-3.75-1-4.21,3.57-8.26,7.33-12.29,11.1a13.38,13.38,0,0,0-2.4,3.22c-1.13,2-3.71,2.46-4.43,5-.47,1.61-2,2.94-3,4.36-2.78,3.69-5.69,7.25-7,11.83-.52,1.75-1.77,3.28-2.57,5-.58,1.21-1,2.52-1.44,3.78-1.22,3.24-2.52,6.44-3.65,9.71-.85,2.44-.21,2.93,2.3,3,3.32.08,6.35-1.24,9.53-1.61,6.59-.76,13.22-1.17,19.84-1.65,1.93-.14,3.89.08,5.82-.05C62.91,74.8,65.66,74.43,68.81,74.1Zm68.72,12.12-.33-.06V85c0-2.49-.14-2.58-2.62-2-1.39.32-2.8.56-4.21.82-2,.36-4,.65-6,1.06s-3.62,1-5.46,1.29c-2.84.4-5.72.49-8.57.84-4.94.61-9.87,1.33-14.8,2a24.43,24.43,0,0,1-5.07.51C89,89.34,89,90.12,89,91c0,.65.24,1.28.28,1.93.18,2.56.21,5.13.52,7.67.54,4.34,1.32,8.65,1.86,13,.52,4.16.87,8.33,1.32,12.5A13.35,13.35,0,0,0,93.5,128c.34,1.31.78,2.61,1,3.94.34,2.13,2,3.42,4,2.68,2.34-.9,4.64-1.93,6.91-3,3.62-1.74,7.61-3,10.7-5.49,3.68-2.93,7.84-5.64,9.92-10.24a13.76,13.76,0,0,1,1.1-1.84c1.5-2.3,3.43-4.42,4.42-6.91,1.46-3.69,4-6.93,4.28-11.17C136,92.71,136.92,89.47,137.53,86.22Zm-50-13.28c.69-.09,1.52-.22,2.36-.3,2.74-.25,5.49-.44,8.22-.75,3-.36,6.09-1.17,9.13-1.18,4.34,0,8.43-1.24,12.61-2,3.56-.62,7.06-1.57,10.61-2.2,2.08-.38,3.15-1.64,2.18-3.45-2.52-4.72-4.76-9.62-8.62-13.53-2.71-2.76-5.11-5.78-8.35-8s-6-4.92-9.1-7.29c-4.66-3.61-9.38-7.18-15.38-8.28-1.15-.21-3.12-.35-3.44.2A8.76,8.76,0,0,0,87,30.46c0,1.9,1,4.06.38,5.63-1.06,2.67-.56,5.33-.63,7.88-.19,6.73.31,13.48.56,20.21.06,1.52.32,3,.35,4.54S87.56,71.5,87.48,72.94Z"/></g></g></svg>