<svg xmlns="http://www.w3.org/2000/svg" viewBox="0 0 165.6 166.63"><g id="Layer_2" data-name="Layer 2"><g id="Layer_1-2" data-name="Layer 1"><path d="M87.26,0h.95c3.48,1,6.93,2.06,10.45,2.82,4.18.91,8.38,1,12.2,3.8,4.13,3,8.93,5,12.87,8.46,4.66,4.1,9.76,7.71,14.62,11.58a40.51,40.51,0,0,1,5.54,4.81,83.49,83.49,0,0,1,5.84,7.84A100.2,100.2,0,0,1,161,60.52c4.07,10.71,5.92,13.36,3.47,22.6,0,.15-.05.38,0,.46,1.8,1.85.49,3.87.48,5.87-.07,10.8-4.59,20.3-8.65,29.88a46.84,46.84,0,0,1-6,10.89,52.53,52.53,0,0,1-5.19,5.88A133.73,133.73,0,0,1,134,145a79.82,79.82,0,0,1-7.32,5.1c-2.47,1.49-5.14,2.64-7.73,3.94-3.26,1.63-6.49,3.35-9.81,4.87a49.93,49.93,0,0,1-22.94,4.61c-3.25-.12-6.5.05-9.74-.09-2.1-.09-3.86,0-3.68,3.19.37-4.14-2.6-4.06-4.88-4.52-1.91-.39-3.93-.22-5.86-.57-3.88-.71-8-.55-11.57-2.59a11.09,11.09,0,0,0-2.69-.72c-3.55-.89-7.34-1.26-10.59-2.79a115.05,115.05,0,0,1-13.88-8.22,50.25,50.25,0,0,1-7.94-6.53c-2.28-2.32-3.9-5.28-6.11-7.68a25.88,25.88,0,0,1-6.2-11.07C1.78,116.61-.28,111.27.49,105.55a13.91,13.91,0,0,0-.23-2.09c-.1-4-.38-8-.2-12,.31-6.65.9-13.28,1.42-19.91.27-3.44.63-6.87,1-10.31a4.27,4.27,0,0,1,.18-.68c.73-2.51,1.45-5,2.19-7.54s1.51-5.18,2.37-7.74c.54-1.61,1.28-3.15,1.89-4.74,1.35-3.49,2.4-7.13,4.08-10.45,1.84-3.65,4.57-6.85,6.34-10.53,2.7-5.64,8.64-7.14,12.72-11.17L32,7.83c2.54-.9,4.86-1.92,7.28-2.53,3.8-1,7.68-1.63,11.52-2.44A24.38,24.38,0,0,1,54.86,2c4-.14,8.14.3,12.14-.18A143.48,143.48,0,0,1,86.53.45C86.77.45,87,.16,87.26,0Zm5.79,144.36c3.89-1.49,7.76-2.46,11.11-4.36,6.27-3.54,12.3-7.51,18.28-11.53a50.51,50.51,0,0,0,6.26-5.56c1.54-1.45,3.34-2.81,4.38-4.59,2.81-4.82,5.4-9.79,7.82-14.82a28.39,28.39,0,0,0,2.53-7.75c.75-4.77.71-9.69,1.63-14.43a21.42,21.42,0,0,0-1-10.81c-2.27-7-4.82-14-8.92-20.24-3.76-5.76-8.53-10.55-13.51-15.11-3.3-3-7.2-5.37-10.89-7.95a32.13,32.13,0,0,0-6-3.74C101,22,97.19,21,93.43,19.75A6.73,6.73,0,0,0,87,20.92c-1.3,1.32.17,2.11.27,3.14.61,6.08,1.47,12.15,1.84,18.24.41,6.73.38,13.49.54,20.24,0,.79,0,1.59.06,2.38.27,2.72.75,5.43.85,8.15.15,3.83,0,7.66.06,11.5,0,1,.31,2,.3,3-.06,3.11-.29,6.22-.29,9.33,0,3.44.23,6.89.29,10.33.08,5-.13,10,.19,15C91.54,129.42,92.34,136.6,93.05,144.36ZM64.37,22.53c-2.31,1.83-4.11.83-6.2.27a15.26,15.26,0,0,0-7.85-.1,26.5,26.5,0,0,0-8,4.4,46.85,46.85,0,0,0-6.94,6.57c-1.07,1.21-1.56,3-2.25,4.48-1.32,2.89-2.63,5.78-3.87,8.7-.3.7-.24,1.55-.5,2.27-2,5.36-4.38,10.55-5.05,16.33-1,8.31-2.51,16.58-3.09,24.91a69.15,69.15,0,0,0,1.28,21.16c1.66,6.92,3.61,13.7,8.78,18.94a38.07,38.07,0,0,0,6.12,4.89,27.22,27.22,0,0,0,6.38,3.3,112.68,112.68,0,0,0,12.41,3.27c4.34.88,8.76,1.39,13.15,2a4.24,4.24,0,0,0,1.35-.12c0-4.9,0-9.55,0-14.2,0-1.49-.27-3-.36-4.47-.17-2.82-.36-5.64-.44-8.47-.11-3.61,0-7.23-.2-10.85-.31-6.45-.75-12.91-1.1-19.36a1.39,1.39,0,0,1,.39-1.09c2-1.28,1.17-3.26,1.19-5,0-1.87-.31-3.75-.41-5.63-.19-3.7-.19-7.42-.54-11.11-.22-2.38-1-4.7-1.34-7.08a9.17,9.17,0,0,1,.49-2.72c-2,0-1.46-1.82-1.5-3.29a45.38,45.38,0,0,0-.06-5.09,7.61,7.61,0,0,1,.37-4.91c.6-1.27-.51-3.29-.7-5-.4-3.43-.68-6.88-1-10.32C64.76,24.46,64.58,23.68,64.37,22.53Z"/></g></g></svg>