<svg width="9" height="6" viewBox="0 0 9 6" fill="none" xmlns="http://www.w3.org/2000/svg">
<path d="M6.56842 2.66192L4.59354 0.528382C4.5598 0.491727 4.51883 0.462469 4.4732 0.442456C4.42758 0.422443 4.3783 0.412109 4.32848 0.412109C4.27866 0.412109 4.22939 0.422443 4.18376 0.442456C4.13814 0.462469 4.09717 0.491727 4.06343 0.528382L2.08855 2.66192C2.03712 2.71717 1.96971 2.75496 1.89575 2.77002C1.82179 2.78508 1.74497 2.77665 1.67603 2.74591L0.630727 2.28113C0.572449 2.2552 0.50833 2.24521 0.444925 2.25218C0.38152 2.25914 0.321102 2.28282 0.269845 2.32079C0.218589 2.35876 0.178332 2.40965 0.15319 2.46828C0.128047 2.5269 0.118921 2.59115 0.126742 2.65445L0.556063 5.65783C0.568203 5.74376 0.610953 5.82241 0.676454 5.87934C0.741955 5.93627 0.825804 5.96764 0.912586 5.96769H7.73878C7.82556 5.96764 7.90941 5.93627 7.97491 5.87934C8.04041 5.82241 8.08316 5.74376 8.0953 5.65783L8.52462 2.65445C8.53245 2.59115 8.52332 2.5269 8.49818 2.46828C8.47303 2.40965 8.43278 2.35876 8.38152 2.32079C8.33027 2.28282 8.26985 2.25914 8.20644 2.25218C8.14304 2.24521 8.07892 2.2552 8.02064 2.28113L6.97534 2.74591C6.90709 2.77537 6.83143 2.78311 6.75863 2.76808C6.68583 2.75306 6.61942 2.71599 6.56842 2.66192Z" fill="#FBBA20"/>
</svg>
