<svg width="273" height="273" viewBox="0 0 273 273" fill="none" xmlns="http://www.w3.org/2000/svg">
<circle cx="136.5" cy="136.5" r="136.5" fill="#222222"/>
<path d="M246 140.17C245.838 141.985 245.679 143.801 245.517 145.617C243.082 172.922 232.025 196.19 212.361 215.262C196.722 230.428 178.057 239.974 156.617 244.041C146.375 245.984 136.048 246.564 125.702 245.409C91.9175 241.638 65.2902 225.72 45.7337 197.979C45.5059 197.656 45.3417 196.981 45.5181 196.719C48.9727 191.62 52.8463 186.855 57.0285 182.551C75.2277 210.236 100.01 226.65 133.819 227.695C161.465 228.549 184.68 218.451 203.396 198.395C223.266 177.104 230.895 151.575 226.769 122.948C222.621 94.1715 206.769 72.8241 182.372 57.3348C182.925 56.8185 183.509 56.2043 184.165 55.6782C188.195 52.4384 192.25 49.228 196.273 45.9809C196.905 45.4719 197.359 45.5698 197.984 46.0053C222.156 62.8796 237.508 85.6633 243.646 114.484C244.817 119.987 245.079 125.684 245.765 131.29C245.829 131.808 245.919 132.322 245.998 132.838L246 140.17Z" fill="#F9B9B3"/>
<path d="M134.892 27.0024C133.973 28.1354 133.015 29.2439 132.138 30.4086C128.345 35.4518 124.587 40.5195 120.775 45.548C120.429 46.0056 119.834 46.4387 119.285 46.5537C99.1943 50.765 82.2227 60.3669 68.3504 75.5307C57.9988 86.8455 51.5184 100.181 47.2504 114.724C46.7824 116.314 46.6305 117.995 46.2752 119.623C46.1895 120.012 45.9641 120.484 45.6505 120.692C39.2215 124.955 33.0939 129.611 27.2945 134.698C27.2063 134.774 27.0863 134.811 27.0495 134.831C27.0495 132.809 26.9246 130.759 27.0716 128.728C27.7993 118.531 29.8867 108.611 33.3977 99.0021C46.3291 63.592 76.6904 37.2968 113.701 29.4421C119.41 28.2308 125.175 27.4625 131.008 27.2349C131.572 27.2129 132.128 27.0807 132.689 27C133.424 27 134.157 27.0024 134.892 27.0024Z" fill="#F9B9B3"/>
<path d="M178.988 35.7403C177.883 36.6628 176.852 37.507 175.84 38.3708C153.257 57.6725 138.785 81.8192 132.785 110.896C131.525 117.002 131.168 123.293 130.445 129.506C130.357 130.262 130.173 130.538 129.377 130.587C91.7779 132.966 61.0074 148.795 36.7812 177.505C36.3671 177.995 35.9653 178.492 35.3699 179.209C34.3262 176.372 33.2506 173.793 32.4298 171.134C31.315 167.524 30.4306 163.846 29.3746 160.22C29.061 159.143 29.2937 158.414 30.0606 157.616C41.7156 145.494 54.9999 135.567 70.0066 127.947C82.8719 121.416 96.4208 116.933 110.616 114.369C113.679 113.816 113.652 113.801 114.181 110.926C119.971 79.4309 134.451 52.5975 157.489 30.3423C158.341 29.5176 159.111 29.4271 160.211 29.6743C166.302 31.0421 172.233 32.8969 178.006 35.268C178.297 35.3879 178.572 35.5421 178.988 35.7403Z" fill="#F9B9B3"/>
<path d="M191.366 167.143C191.319 180.574 180.282 191.505 166.836 191.438C153.39 191.372 142.467 180.346 142.538 166.908C142.609 153.54 153.613 142.641 167.01 142.673C180.458 142.705 191.412 153.711 191.366 167.143Z" fill="#F9B9B3"/>
</svg>
