<svg width="21" height="14" viewBox="0 0 21 14" fill="none" xmlns="http://www.w3.org/2000/svg">
<path d="M4.56053 8.24331H6.72009L5.63146 2.52579L4.56053 8.24331ZM0.914062 13.713L3.98524 0.0830078H7.39274L10.4905 13.713H7.75561L7.08297 10.2878H4.16225L3.5073 13.713H0.914062Z" fill="#F24141"/>
<path d="M13.4629 5.84478H14.9232C15.6608 5.84478 16.1712 5.69727 16.4544 5.40225C16.7435 5.10723 16.8881 4.57914 16.8881 3.81798C16.8881 3.13943 16.7317 2.66445 16.419 2.39303C16.1063 2.12161 15.5369 1.9859 14.7108 1.9859H13.4629V5.84478ZM11.0112 13.713V0.0830078H15.5605C16.9353 0.0830078 17.9236 0.363278 18.5254 0.92382C19.1332 1.47846 19.4371 2.38713 19.4371 3.64982C19.4371 4.53488 19.2748 5.23409 18.9503 5.74742C18.6257 6.25486 18.1478 6.55283 17.5165 6.64134C18.7202 6.95996 19.3485 7.97779 19.4017 9.69481C19.4017 9.77152 19.4017 9.83052 19.4017 9.87183L19.4725 11.6774C19.4961 12.1907 19.561 12.6037 19.6672 12.9164C19.7734 13.2233 19.9386 13.4888 20.1628 13.713H17.1536C17.0828 13.4829 17.0297 13.2144 16.9943 12.9076C16.9589 12.5949 16.9353 12.1553 16.9235 11.5889L16.8881 10.1639V9.80102C16.8881 9.01036 16.7199 8.46752 16.3836 8.1725C16.0473 7.87748 15.3628 7.72997 14.3302 7.72997H13.4629V13.713H11.0112Z" fill="#F24141"/>
</svg>
