<svg width="15" height="14" viewBox="0 0 15 14" fill="none" xmlns="http://www.w3.org/2000/svg">
<path d="M13.802 0.253107C14.0176 0.412808 14.1454 0.668329 14.1454 0.937158V2.85357V9.88039C14.1454 11.0569 13.0008 12.0097 11.5902 12.0097C10.1795 12.0097 9.03494 11.0569 9.03494 9.88039C9.03494 8.70393 10.1795 7.75105 11.5902 7.75105C11.8883 7.75105 12.1757 7.79364 12.4419 7.87349V3.99809L5.628 6.04225V11.5839C5.628 12.7603 4.48348 13.7132 3.07279 13.7132C1.6621 13.7132 0.517578 12.7603 0.517578 11.5839C0.517578 10.4074 1.6621 9.45452 3.07279 9.45452C3.3709 9.45452 3.65836 9.49711 3.92452 9.57696V5.40878V3.49237C3.92452 3.11707 4.17206 2.78436 4.53139 2.67523L13.0488 0.120024C13.3069 0.042835 13.5864 0.0907452 13.802 0.253107Z" fill="#F24141"/>
</svg>
