<svg width="15" height="15" viewBox="0 0 15 15" fill="none" xmlns="http://www.w3.org/2000/svg">
<path d="M12.8678 7.80413C12.8678 9.27244 12.2845 10.6806 11.2462 11.7189C10.208 12.7571 8.79979 13.3404 7.33147 13.3404C5.86316 13.3404 4.45498 12.7571 3.41672 11.7189C2.37847 10.6806 1.79518 9.27244 1.79518 7.80413C1.79518 6.33581 2.37847 4.92764 3.41672 3.88938C4.45498 2.85113 5.86316 2.26784 7.33147 2.26784C8.79979 2.26784 10.208 2.85113 11.2462 3.88938C12.2845 4.92764 12.8678 6.33581 12.8678 7.80413ZM0.517578 7.80413C0.517578 9.61128 1.23547 11.3444 2.51332 12.6223C3.79117 13.9001 5.52431 14.618 7.33147 14.618C9.13863 14.618 10.8718 13.9001 12.1496 12.6223C13.4275 11.3444 14.1454 9.61128 14.1454 7.80413C14.1454 5.99697 13.4275 4.26383 12.1496 2.98598C10.8718 1.70812 9.13863 0.990234 7.33147 0.990234C5.52431 0.990234 3.79117 1.70812 2.51332 2.98598C1.23547 4.26383 0.517578 5.99697 0.517578 7.80413ZM6.69267 4.18425V7.80413C6.69267 8.01706 6.79914 8.21669 6.97747 8.33646L9.53268 10.0399C9.82546 10.2369 10.2221 10.157 10.419 9.8616C10.616 9.56616 10.5361 9.17223 10.2407 8.97527L7.97027 7.46343V4.18425C7.97027 3.83024 7.68547 3.54544 7.33147 3.54544C6.97747 3.54544 6.69267 3.83024 6.69267 4.18425Z" fill="#F24141"/>
</svg>
