<svg width="15" height="15" viewBox="0 0 15 15" fill="none" xmlns="http://www.w3.org/2000/svg">
<path d="M7.33169 0.924805C7.56925 0.924805 7.78615 1.05936 7.88944 1.27412L9.6608 4.93033L13.6167 5.51511C13.8491 5.54875 14.0427 5.71176 14.115 5.93688C14.1873 6.162 14.1279 6.40523 13.9627 6.57083L11.0939 9.42231L11.7704 13.4485C11.8092 13.6814 11.7136 13.9169 11.5225 14.0566C11.3315 14.1963 11.0758 14.2119 10.8693 14.1006L7.33169 12.2065L3.79671 14.098C3.58756 14.2093 3.33451 14.1937 3.14343 14.054C2.95235 13.9143 2.85422 13.6788 2.89296 13.4459L3.56948 9.41972L0.700701 6.57083C0.53286 6.40523 0.476053 6.15941 0.548353 5.93688C0.620654 5.71435 0.814316 5.55134 1.04671 5.51511L5.00258 4.93033L6.77395 1.27412C6.87982 1.05936 7.09413 0.924805 7.33169 0.924805ZM7.33169 2.96897L5.97606 5.76869C5.88568 5.95241 5.71268 6.08178 5.50869 6.11283L2.45399 6.56307L4.67207 8.76507C4.81409 8.90738 4.88122 9.10921 4.84765 9.30845L4.32347 12.4057L7.03991 10.9515C7.22324 10.8532 7.44273 10.8532 7.62348 10.9515L10.3399 12.4057L9.81832 9.31104C9.78475 9.1118 9.8493 8.90997 9.9939 8.76766L12.212 6.56566L9.15728 6.11283C8.95587 6.08178 8.78029 5.95499 8.68991 5.76869L7.33169 2.96897Z" fill="#F24141"/>
</svg>
