<svg width="18" height="15" viewBox="0 0 18 15" fill="none" xmlns="http://www.w3.org/2000/svg">
<path d="M5.80602 9.66959H8.16214C8.16214 9.72589 8.16495 9.81034 8.17058 9.92294C8.17621 10.0299 8.17902 10.1144 8.17902 10.1763C8.17902 11.6795 7.86094 12.797 7.22476 13.5289C6.59421 14.2552 5.62586 14.6183 4.31973 14.6183C3.70044 14.6183 3.16841 14.5366 2.72365 14.3734C2.27888 14.2157 1.89605 13.968 1.57515 13.6302C1.13601 13.1798 0.826369 12.5606 0.646212 11.7724C0.466055 10.9842 0.375977 9.61048 0.375977 7.65127C0.375977 6.31136 0.429461 5.2473 0.536429 4.45912C0.643397 3.6653 0.809479 3.07416 1.03468 2.6857C1.38373 2.08893 1.81723 1.65824 2.33518 1.39363C2.85313 1.1234 3.51465 0.988281 4.31973 0.988281C5.63712 0.988281 6.59421 1.33171 7.19098 2.01855C7.79338 2.7054 8.09739 3.80886 8.10302 5.32894H5.75535V5.01648C5.75535 4.31274 5.63994 3.78916 5.40911 3.44573C5.18392 3.09668 4.83768 2.92215 4.37039 2.92215C3.79051 2.92215 3.39361 3.16142 3.17967 3.63997C2.97136 4.11851 2.86721 5.44154 2.86721 7.60905C2.86721 9.95109 2.96855 11.3755 3.17122 11.8821C3.37953 12.3888 3.77362 12.6422 4.3535 12.6422C4.89398 12.6422 5.27118 12.4451 5.48512 12.051C5.69905 11.6513 5.80602 10.9166 5.80602 9.84694V9.66959Z" fill="#F24141"/>
<path d="M9.41062 9.73715H11.8343V10.5732C11.8343 11.3726 11.9328 11.9187 12.1299 12.2115C12.3325 12.4986 12.6788 12.6422 13.1686 12.6422C13.6809 12.6422 14.0694 12.5127 14.334 12.2537C14.6042 11.9947 14.7393 11.6119 14.7393 11.1052C14.7393 10.7168 14.6464 10.3846 14.4606 10.1087C14.2749 9.82723 13.8723 9.46692 13.253 9.02779L12.0116 8.14952C10.942 7.40637 10.2607 6.79271 9.96798 6.30854C9.68086 5.82437 9.5373 5.21634 9.5373 4.48445C9.5373 3.39225 9.86102 2.53651 10.5085 1.91722C11.1559 1.29793 12.0482 0.988281 13.1855 0.988281C14.3903 0.988281 15.3136 1.31763 15.9554 1.97633C16.5972 2.63503 16.9181 3.58085 16.9181 4.8138C16.9181 4.93766 16.9153 5.03337 16.9097 5.10093C16.9097 5.16849 16.9068 5.2276 16.9012 5.27827H14.6042V4.93203C14.6042 4.22829 14.4888 3.72442 14.258 3.4204C14.0271 3.11639 13.6471 2.96438 13.1179 2.96438C12.7295 2.96438 12.4226 3.07979 12.1974 3.31062C11.9779 3.53581 11.8681 3.85109 11.8681 4.25644C11.8681 4.80254 12.3663 5.40776 13.3628 6.07209L13.3882 6.08897L14.7224 6.99257C15.6739 7.62312 16.3185 8.21989 16.6563 8.78288C16.9941 9.34025 17.163 10.0524 17.163 10.9194C17.163 12.1017 16.8252 13.0138 16.1496 13.6556C15.474 14.2974 14.5085 14.6183 13.253 14.6183C11.9469 14.6183 10.9729 14.2805 10.3311 13.6049C9.69493 12.9293 9.37684 11.899 9.37684 10.5141C9.37684 10.3677 9.3881 10.1256 9.41062 9.78782V9.73715Z" fill="#F24141"/>
</svg>
