<svg width="15" height="15" viewBox="0 0 15 15" fill="none" xmlns="http://www.w3.org/2000/svg">
<path d="M13.5833 10.1147C13.154 10.1147 12.8055 10.4632 12.8055 10.8925V12.7591C12.8055 13.0142 12.594 13.2258 12.3389 13.2258H2.38351C2.1284 13.2258 1.91685 13.0142 1.91685 12.7591V10.8925C1.91685 10.4632 1.56841 10.1147 1.13909 10.1147C0.709765 10.1147 0.361328 10.4632 0.361328 10.8925V12.7591C0.361328 13.8729 1.26975 14.7813 2.38351 14.7813H12.3389C13.4526 14.7813 14.361 13.8729 14.361 12.7591V10.8925C14.361 10.4632 14.0126 10.1147 13.5833 10.1147Z" fill="#211E1E"/>
<path d="M7.36089 0.78125C6.93157 0.78125 6.58313 1.12969 6.58313 1.55901V8.60865L4.1254 6.56158C3.79563 6.2878 3.30408 6.33136 3.03031 6.66113C2.75654 6.9909 2.8001 7.48245 3.12987 7.75622L6.86312 10.8673C6.90046 10.8922 6.94401 10.917 6.98756 10.9419C7.01868 10.9606 7.04356 10.9793 7.07467 10.9917C7.25512 11.0664 7.46044 11.0664 7.64088 10.9917C7.672 10.9793 7.70311 10.9606 7.72799 10.9419C7.77155 10.9233 7.8151 10.8984 7.85244 10.8673L11.5857 7.75622C11.9155 7.48245 11.959 6.9909 11.6852 6.66113C11.5359 6.48691 11.3181 6.38114 11.0879 6.38114C10.9075 6.38114 10.727 6.44336 10.5902 6.56158L8.13243 8.60865V1.55901C8.13243 1.12969 7.78399 0.78125 7.35467 0.78125H7.36089Z" fill="#211E1E"/>
</svg>
