<svg width="20" height="22" viewBox="0 0 20 22" fill="none" xmlns="http://www.w3.org/2000/svg">
<path d="M19.9446 6.90462C20.0772 7.26518 19.9653 7.66719 19.6793 7.92415L17.8848 9.55705C17.9304 9.90104 17.9552 10.2533 17.9552 10.6097C17.9552 10.9662 17.9304 11.3184 17.8848 11.6624L19.6793 13.2953C19.9653 13.5523 20.0772 13.9543 19.9446 14.3149C19.7622 14.808 19.5425 15.2805 19.2897 15.7364L19.0949 16.0721C18.8214 16.528 18.5147 16.959 18.179 17.3652C17.9345 17.6636 17.5284 17.763 17.1636 17.647L14.8552 16.9134C14.2998 17.3403 13.6865 17.6967 13.0317 17.9661L12.5136 20.3326C12.4307 20.7097 12.1406 21.0081 11.7593 21.0703C11.1874 21.1656 10.5989 21.2153 9.99793 21.2153C9.39699 21.2153 8.80848 21.1656 8.23654 21.0703C7.85526 21.0081 7.56515 20.7097 7.48226 20.3326L6.96421 17.9661C6.30939 17.6967 5.69601 17.3403 5.14066 16.9134L2.83635 17.6511C2.47164 17.7672 2.06549 17.6636 1.82097 17.3693C1.48527 16.9632 1.17858 16.5321 0.90505 16.0762L0.710262 15.7405C0.457452 15.2847 0.237797 14.8122 0.0554424 14.319C-0.0771793 13.9584 0.0347202 13.5564 0.320686 13.2995L2.11522 11.6666C2.06963 11.3184 2.04477 10.9662 2.04477 10.6097C2.04477 10.2533 2.06963 9.90104 2.11522 9.55705L0.320686 7.92415C0.0347202 7.66719 -0.0771793 7.26518 0.0554424 6.90462C0.237797 6.41143 0.457452 5.93897 0.710262 5.48308L0.90505 5.14738C1.17858 4.69149 1.48527 4.26047 1.82097 3.85432C2.06549 3.55592 2.47164 3.45645 2.83635 3.5725L5.1448 4.30606C5.70015 3.87919 6.31353 3.52276 6.96835 3.25338L7.4864 0.886908C7.56929 0.509765 7.8594 0.211366 8.24069 0.149199C8.81262 0.0497331 9.40113 0 10.0021 0C10.603 0 11.1915 0.0497332 11.7635 0.145055C12.1447 0.207221 12.4349 0.50562 12.5177 0.882763L13.0358 3.24923C13.6906 3.51862 14.304 3.87504 14.8593 4.30192L17.1678 3.56835C17.5325 3.45231 17.9387 3.55592 18.1832 3.85017C18.5189 4.25633 18.8256 4.68735 19.0991 5.14324L19.2939 5.47894C19.5467 5.93482 19.7663 6.40729 19.9487 6.90048L19.9446 6.90462ZM10.0021 13.9253C10.8814 13.9253 11.7247 13.576 12.3465 12.9542C12.9683 12.3324 13.3176 11.4891 13.3176 10.6097C13.3176 9.7304 12.9683 8.88708 12.3465 8.2653C11.7247 7.64351 10.8814 7.2942 10.0021 7.2942C9.12274 7.2942 8.27941 7.64351 7.65763 8.2653C7.03584 8.88708 6.68653 9.7304 6.68653 10.6097C6.68653 11.4891 7.03584 12.3324 7.65763 12.9542C8.27941 13.576 9.12274 13.9253 10.0021 13.9253Z" fill="black"/>
</svg>
