<svg width="20" height="15" viewBox="0 0 20 15" fill="none" xmlns="http://www.w3.org/2000/svg">
<path d="M0.931641 14.6202V0.990234H3.45408V6.33603H6.93238V0.990234H9.45482V14.6202H6.93238V8.44248H3.45408V14.6202H0.931641Z" fill="#F24141"/>
<path d="M13.4185 6.95557H14.4806C15.2712 6.95557 15.8259 6.80216 16.1445 6.49534C16.4631 6.18262 16.6224 5.65158 16.6224 4.90222C16.6224 4.14697 16.4749 3.62478 16.1799 3.33566C15.8908 3.04063 15.3361 2.89312 14.516 2.89312H13.4185V6.95557ZM10.9669 14.6202V0.990234H15.3745C16.7198 0.990234 17.6875 1.29116 18.2775 1.893C18.8675 2.49484 19.1626 3.48022 19.1626 4.84912C19.1626 6.19442 18.8469 7.19749 18.2155 7.85834C17.5901 8.51329 16.6313 8.84076 15.3391 8.84076H13.4893V14.6202H10.9669Z" fill="#F24141"/>
</svg>
