<svg width="21" height="21" viewBox="0 0 21 21" fill="none" xmlns="http://www.w3.org/2000/svg">
<path d="M14.5831 12.8755C14.3233 12.8755 14.0634 12.7641 13.8407 12.5786C13.4324 12.1702 13.4324 11.5392 13.8407 11.1309L17.1443 7.82738C18.2578 6.71383 18.2578 4.93214 17.1443 3.81858C16.0307 2.70502 14.249 2.70502 13.1355 3.81858L10.0175 6.93654C9.60922 7.34484 8.9782 7.34484 8.5699 6.93654C8.1616 6.52823 8.1616 5.89722 8.5699 5.48891L11.6879 2.37096C13.5809 0.47791 16.6989 0.47791 18.629 2.37096C20.5221 4.264 20.5221 7.38196 18.629 9.31212L15.3255 12.6157C15.1399 12.8013 14.8429 12.8755 14.5831 12.8755Z" fill="#131313"/>
<path d="M5.82298 20.0757C4.52383 20.0757 3.29892 19.5561 2.37096 18.6281C0.477911 16.735 0.477911 13.6171 2.37096 11.6869L5.67451 8.38338C6.08281 7.97507 6.71382 7.97507 7.12213 8.38338C7.53043 8.79168 7.53043 9.4227 7.12213 9.831L3.81858 13.1345C2.70502 14.2481 2.70502 16.0298 3.81858 17.1433C4.89502 18.2198 6.75094 18.2198 7.82738 17.1433L10.9825 13.9883C11.3908 13.58 12.0218 13.58 12.4301 13.9883C12.8384 14.3966 12.8384 15.0276 12.4301 15.4359L9.275 18.591C8.34704 19.5561 7.12213 20.0757 5.82298 20.0757Z" fill="#131313"/>
<path d="M7.41872 14.5836C7.15889 14.5836 6.89906 14.4722 6.67635 14.2866C6.26804 13.8783 6.26804 13.2473 6.67635 12.839L12.9494 6.56599C13.3577 6.15769 13.9887 6.15769 14.397 6.56599C14.8053 6.9743 14.8053 7.60531 14.397 8.01362L8.16109 14.2866C7.97549 14.4722 7.71566 14.5836 7.41872 14.5836Z" fill="#131313"/>
</svg>
