<svg width="19" height="15" viewBox="0 0 19 15" fill="none" xmlns="http://www.w3.org/2000/svg">
<path d="M2.80442 7.52789C2.80442 9.66725 2.92828 11.0156 3.176 11.573C3.42934 12.1247 3.89381 12.4006 4.5694 12.4006C5.23373 12.4006 5.68693 12.1303 5.92902 11.5899C6.17673 11.0438 6.30059 9.68977 6.30059 7.52789C6.30059 5.36601 6.17673 4.0092 5.92902 3.45747C5.6813 2.90574 5.22247 2.62987 4.55251 2.62987C3.88255 2.62987 3.42371 2.90574 3.176 3.45747C2.92828 4.0092 2.80442 5.36601 2.80442 7.52789ZM0.330078 7.52789C0.330078 6.14856 0.394822 5.04792 0.52431 4.22595C0.653798 3.39836 0.856474 2.77625 1.13234 2.35964C1.50954 1.7685 1.95994 1.34625 2.48352 1.09291C3.0071 0.839563 3.69676 0.712891 4.55251 0.712891C5.40825 0.712891 6.09792 0.839563 6.6215 1.09291C7.14508 1.34625 7.59829 1.7685 7.98112 2.35964C8.25698 2.78751 8.45685 3.41243 8.5807 4.2344C8.71019 5.05636 8.77494 6.15419 8.77494 7.52789C8.77494 8.89596 8.71019 9.99379 8.5807 10.8214C8.45122 11.6434 8.25135 12.2683 7.98112 12.6961C7.59829 13.2873 7.14508 13.7095 6.6215 13.9629C6.09792 14.2162 5.40825 14.3429 4.55251 14.3429C3.69676 14.3429 3.0071 14.2162 2.48352 13.9629C1.95994 13.7095 1.50954 13.2873 1.13234 12.6961C0.856474 12.2795 0.653798 11.6602 0.52431 10.8383C0.394822 10.0107 0.330078 8.90722 0.330078 7.52789Z" fill="#F24141"/>
<path d="M12.3373 12.1134H13.4098C13.9559 12.1134 14.3387 12.074 14.5583 11.9952C14.7779 11.9164 14.9524 11.7813 15.0819 11.5899C15.3071 11.2521 15.4675 10.7904 15.5632 10.2049C15.659 9.61377 15.7068 8.67076 15.7068 7.37588C15.7068 6.11478 15.6505 5.19711 15.5379 4.62286C15.4253 4.04861 15.2339 3.61511 14.9637 3.32235C14.8229 3.17597 14.6399 3.07464 14.4147 3.01834C14.1952 2.95641 13.8489 2.92544 13.376 2.92544H12.3373V12.1134ZM9.96431 14.0304V1.02535H13.8574C14.6512 1.02535 15.2818 1.09291 15.749 1.22803C16.2219 1.36314 16.6104 1.58271 16.9144 1.88673C17.3704 2.33149 17.6914 2.89448 17.8771 3.5757C18.0686 4.25129 18.1643 5.30408 18.1643 6.73407C18.1643 8.58068 18.0995 9.88682 17.97 10.6525C17.8405 11.4125 17.621 12.06 17.3113 12.5948C17.013 13.1296 16.5963 13.504 16.0615 13.718C15.5323 13.9263 14.6118 14.0304 13.3 14.0304H9.96431Z" fill="#F24141"/>
</svg>
