<svg width="15" height="15" viewBox="0 0 15 15" fill="none" xmlns="http://www.w3.org/2000/svg">
<path d="M12.671 0.160156H1.78212C0.926562 0.160156 0.226562 0.860156 0.226562 1.71571V12.6046C0.226562 13.4602 0.926562 14.1602 1.78212 14.1602H12.671C13.5266 14.1602 14.2266 13.4602 14.2266 12.6046V1.71571C14.2266 0.860156 13.5266 0.160156 12.671 0.160156ZM4.89323 11.049H3.33767V9.49349H4.89323V11.049ZM4.89323 7.93793H3.33767V6.38238H4.89323V7.93793ZM4.89323 4.82682H3.33767V3.27127H4.89323V4.82682ZM11.1155 11.049H6.44878V9.49349H11.1155V11.049ZM11.1155 7.93793H6.44878V6.38238H11.1155V7.93793ZM11.1155 4.82682H6.44878V3.27127H11.1155V4.82682Z" fill="#211E1E"/>
</svg>
